<svg id="katman_1" data-name="katman 1" xmlns="http://www.w3.org/2000/svg" xmlns:xlink="http://www.w3.org/1999/xlink" viewBox="0 0 308.92 309.87"><defs><style>.cls-1{fill:url(#Adsız_degrade_10);}.cls-2{fill:url(#Adsız_degrade_78);}.cls-3{fill:url(#Adsız_degrade_84);}.cls-4{fill:url(#Adsız_degrade_79);}.cls-5{fill:url(#Adsız_degrade_84-2);}.cls-6,.cls-7{fill:#33332c;}.cls-6{stroke:#fff;stroke-miterlimit:10;}</style><linearGradient id="Adsız_degrade_10" x1="142.4" y1="328.74" x2="195.96" y2="24.95" gradientUnits="userSpaceOnUse"><stop offset="0" stop-color="#e30613"/><stop offset="1" stop-color="#95c11f"/></linearGradient><linearGradient id="Adsız_degrade_78" x1="288.4" y1="129.97" x2="321.62" y2="129.97" gradientTransform="translate(149.35 411.92) rotate(-90)" gradientUnits="userSpaceOnUse"><stop offset="0" stop-color="#c98315"/><stop offset="0.53" stop-color="#afa21a"/><stop offset="1" stop-color="#95c11f"/></linearGradient><linearGradient id="Adsız_degrade_84" x1="292.31" y1="168.8" x2="292.31" y2="135.58" gradientUnits="userSpaceOnUse"><stop offset="0" stop-color="#d16515"/><stop offset="1" stop-color="#c58d16"/></linearGradient><linearGradient id="Adsız_degrade_79" x1="279.31" y1="214.08" x2="279.31" y2="180.86" gradientUnits="userSpaceOnUse"><stop offset="0" stop-color="#e30613"/><stop offset="0.02" stop-color="#e20913"/><stop offset="0.33" stop-color="#da3615"/><stop offset="0.61" stop-color="#d35717"/><stop offset="0.84" stop-color="#cf6b18"/><stop offset="1" stop-color="#ce7218"/></linearGradient><linearGradient id="Adsız_degrade_84-2" x1="49.87" y1="66.95" x2="49.87" y2="22.98" gradientTransform="translate(-18.83 -29.48) rotate(6.84)" xlink:href="#Adsız_degrade_84"/></defs><path class="cls-1" d="M293.47,282.94s9.88-12.39.18-22.29c-16.17-16.51-28.59,0-28.59,0-21.68,25.54-49.2,36.41-85.33,36.41a118.18,118.18,0,0,1,0-236.36c35.65,0,60.66,8.44,82.33,33.4,0,0,12.42,16.52,28.59,0,9.7-9.91-.18-22.3-.18-22.3-28.17-31-65.56-47-110.74-47a154,154,0,0,0,0,308.08c47.48,0,85.69-16.48,113.94-50.24" transform="translate(-25.69 -23.05)"/><circle class="cls-2" cx="279.31" cy="106.91" r="16.61"/><circle class="cls-3" cx="292.31" cy="152.19" r="16.61"/><circle class="cls-4" cx="279.31" cy="197.47" r="16.61"/><polygon class="cls-5" points="45.9 45.71 33.98 0 24.48 24.59 0.35 33.19 45.9 45.71"/><polygon class="cls-6" points="43.15 43.09 33.5 6.1 25.81 26 6.29 32.95 43.15 43.09"/><polyline class="cls-7" points="154.04 108.4 166.34 121.38 166.34 140.49 154.04 140.49"/><polyline class="cls-7" points="154.04 108.4 141.74 121.38 141.74 140.49 154.04 140.49"/><polyline class="cls-7" points="154.04 172.58 141.74 172.58 141.74 140.49 154.04 140.49"/><polyline class="cls-7" points="154.04 172.58 166.34 172.58 166.34 140.49 154.04 140.49"/><polyline class="cls-7" points="154.04 172.58 166.34 172.58 166.34 204.67 154.04 204.67"/><polyline class="cls-7" points="154.04 172.58 141.74 172.58 141.74 204.67 154.04 204.67"/><polyline class="cls-7" points="154.04 236.77 141.74 223.78 141.74 204.67 154.04 204.67"/><polyline class="cls-7" points="154.04 236.77 166.34 223.78 166.34 204.67 154.04 204.67"/><polyline class="cls-7" points="89.85 102.6 102.83 90.3 121.95 90.3 121.95 102.6"/><polyline class="cls-7" points="89.85 102.6 102.83 114.9 121.95 114.9 121.95 102.6"/><polyline class="cls-7" points="154.04 102.6 141.06 114.9 121.95 114.9 121.95 102.6"/><polyline class="cls-7" points="154.04 102.6 154.04 90.3 121.95 90.3 121.95 102.6"/><polyline class="cls-7" points="154.04 102.6 154.04 90.3 186.13 90.3 186.13 102.6"/><polyline class="cls-7" points="154.04 102.6 167.02 114.9 186.13 114.9 186.13 102.6"/><polyline class="cls-7" points="218.22 102.6 205.24 114.9 186.13 114.9 186.13 102.6"/><polyline class="cls-7" points="218.22 102.6 205.24 90.3 186.13 90.3 186.13 102.6"/></svg>