<svg width="73" height="43" viewBox="0 0 73 43" fill="none" xmlns="http://www.w3.org/2000/svg">
<path d="M11.664 18V3.432H6.07203V0.719999H20.148V3.432H14.556V18H11.664ZM20.8714 18V5.04H23.4274V8.196L23.1154 7.788C23.2754 7.356 23.4874 6.964 23.7514 6.612C24.0234 6.252 24.3474 5.956 24.7234 5.724C25.0434 5.508 25.3954 5.34 25.7794 5.22C26.1714 5.092 26.5714 5.016 26.9794 4.992C27.3874 4.96 27.7834 4.976 28.1674 5.04V7.74C27.7834 7.628 27.3394 7.592 26.8354 7.632C26.3394 7.672 25.8914 7.812 25.4914 8.052C25.0914 8.268 24.7634 8.544 24.5074 8.88C24.2594 9.216 24.0754 9.6 23.9554 10.032C23.8354 10.456 23.7754 10.916 23.7754 11.412V18H20.8714ZM35.3173 18.372C34.3573 18.372 33.5653 18.212 32.9413 17.892C32.3173 17.572 31.8213 17.164 31.4533 16.668C31.0853 16.172 30.8133 15.644 30.6373 15.084C30.4613 14.524 30.3453 13.996 30.2893 13.5C30.2413 12.996 30.2173 12.588 30.2173 12.276V5.04H33.1453V11.28C33.1453 11.68 33.1733 12.132 33.2293 12.636C33.2853 13.132 33.4133 13.612 33.6133 14.076C33.8213 14.532 34.1253 14.908 34.5253 15.204C34.9333 15.5 35.4813 15.648 36.1693 15.648C36.5373 15.648 36.9013 15.588 37.2613 15.468C37.6213 15.348 37.9453 15.144 38.2333 14.856C38.5293 14.56 38.7653 14.156 38.9413 13.644C39.1173 13.132 39.2053 12.484 39.2053 11.7L40.9213 12.432C40.9213 13.536 40.7053 14.536 40.2733 15.432C39.8493 16.328 39.2213 17.044 38.3893 17.58C37.5573 18.108 36.5333 18.372 35.3173 18.372ZM39.5533 18V13.98H39.2053V5.04H42.1093V18H39.5533ZM50.4848 18.36C48.8848 18.36 47.5848 18 46.5848 17.28C45.5848 16.56 44.9768 15.548 44.7608 14.244L47.7128 13.788C47.8648 14.428 48.2008 14.932 48.7208 15.3C49.2408 15.668 49.8968 15.852 50.6888 15.852C51.3848 15.852 51.9208 15.716 52.2968 15.444C52.6808 15.164 52.8728 14.784 52.8728 14.304C52.8728 14.008 52.8008 13.772 52.6568 13.596C52.5208 13.412 52.2168 13.236 51.7448 13.068C51.2728 12.9 50.5488 12.688 49.5728 12.432C48.4848 12.144 47.6208 11.836 46.9808 11.508C46.3408 11.172 45.8808 10.776 45.6008 10.32C45.3208 9.864 45.1808 9.312 45.1808 8.664C45.1808 7.856 45.3928 7.152 45.8168 6.552C46.2408 5.952 46.8328 5.492 47.5928 5.172C48.3528 4.844 49.2488 4.68 50.2808 4.68C51.2888 4.68 52.1808 4.836 52.9568 5.148C53.7408 5.46 54.3728 5.904 54.8528 6.48C55.3328 7.056 55.6288 7.732 55.7408 8.508L52.7888 9.036C52.7168 8.484 52.4648 8.048 52.0328 7.728C51.6088 7.408 51.0408 7.228 50.3288 7.188C49.6488 7.148 49.1008 7.252 48.6848 7.5C48.2688 7.74 48.0608 8.08 48.0608 8.52C48.0608 8.768 48.1448 8.98 48.3128 9.156C48.4808 9.332 48.8168 9.508 49.3208 9.684C49.8328 9.86 50.5928 10.076 51.6008 10.332C52.6328 10.596 53.4568 10.9 54.0728 11.244C54.6968 11.58 55.1448 11.984 55.4168 12.456C55.6968 12.928 55.8368 13.5 55.8368 14.172C55.8368 15.476 55.3608 16.5 54.4088 17.244C53.4648 17.988 52.1568 18.36 50.4848 18.36ZM66.0612 18C65.2052 18.16 64.3652 18.228 63.5412 18.204C62.7252 18.188 61.9932 18.04 61.3452 17.76C60.6972 17.472 60.2052 17.02 59.8692 16.404C59.5732 15.844 59.4172 15.272 59.4012 14.688C59.3852 14.104 59.3772 13.444 59.3772 12.708V1.44H62.2572V12.54C62.2572 13.06 62.2612 13.516 62.2692 13.908C62.2852 14.3 62.3692 14.62 62.5212 14.868C62.8092 15.348 63.2692 15.616 63.9012 15.672C64.5332 15.728 65.2532 15.696 66.0612 15.576V18ZM57.0252 7.308V5.04H66.0612V7.308H57.0252Z" fill="#640A04"/>
<path d="M8.77316 42.36C7.04516 42.36 5.56516 41.984 4.33316 41.232C3.10116 40.472 2.15316 39.416 1.48916 38.064C0.833156 36.712 0.505156 35.144 0.505156 33.36C0.505156 31.576 0.833156 30.008 1.48916 28.656C2.15316 27.304 3.10116 26.252 4.33316 25.5C5.56516 24.74 7.04516 24.36 8.77316 24.36C10.7652 24.36 12.4252 24.86 13.7532 25.86C15.0812 26.852 16.0132 28.192 16.5492 29.88L13.6332 30.684C13.2972 29.556 12.7252 28.676 11.9172 28.044C11.1092 27.404 10.0612 27.084 8.77316 27.084C7.61316 27.084 6.64516 27.344 5.86916 27.864C5.10116 28.384 4.52116 29.116 4.12916 30.06C3.74516 30.996 3.54916 32.096 3.54116 33.36C3.54116 34.624 3.73316 35.728 4.11716 36.672C4.50916 37.608 5.09316 38.336 5.86916 38.856C6.64516 39.376 7.61316 39.636 8.77316 39.636C10.0612 39.636 11.1092 39.316 11.9172 38.676C12.7252 38.036 13.2972 37.156 13.6332 36.036L16.5492 36.84C16.0132 38.528 15.0812 39.872 13.7532 40.872C12.4252 41.864 10.7652 42.36 8.77316 42.36ZM19.1839 42V29.04H21.7399V32.196L21.4279 31.788C21.5879 31.356 21.7999 30.964 22.0639 30.612C22.3359 30.252 22.6599 29.956 23.0359 29.724C23.3559 29.508 23.7079 29.34 24.0919 29.22C24.4839 29.092 24.8839 29.016 25.2919 28.992C25.6999 28.96 26.0959 28.976 26.4799 29.04V31.74C26.0959 31.628 25.6519 31.592 25.1479 31.632C24.6519 31.672 24.2039 31.812 23.8039 32.052C23.4039 32.268 23.0759 32.544 22.8199 32.88C22.5719 33.216 22.3879 33.6 22.2679 34.032C22.1479 34.456 22.0879 34.916 22.0879 35.412V42H19.1839ZM34.4275 42.36C33.1155 42.36 31.9635 42.076 30.9715 41.508C29.9795 40.94 29.2035 40.152 28.6435 39.144C28.0915 38.136 27.8155 36.976 27.8155 35.664C27.8155 34.248 28.0875 33.02 28.6315 31.98C29.1755 30.932 29.9315 30.12 30.8995 29.544C31.8675 28.968 32.9875 28.68 34.2595 28.68C35.6035 28.68 36.7435 28.996 37.6795 29.628C38.6235 30.252 39.3235 31.136 39.7795 32.28C40.2355 33.424 40.4075 34.772 40.2955 36.324H37.4275V35.268C37.4195 33.86 37.1715 32.832 36.6835 32.184C36.1955 31.536 35.4275 31.212 34.3795 31.212C33.1955 31.212 32.3155 31.58 31.7395 32.316C31.1635 33.044 30.8755 34.112 30.8755 35.52C30.8755 36.832 31.1635 37.848 31.7395 38.568C32.3155 39.288 33.1555 39.648 34.2595 39.648C34.9715 39.648 35.5835 39.492 36.0955 39.18C36.6155 38.86 37.0155 38.4 37.2955 37.8L40.1515 38.664C39.6555 39.832 38.8875 40.74 37.8475 41.388C36.8155 42.036 35.6755 42.36 34.4275 42.36ZM29.9635 36.324V34.14H38.8795V36.324H29.9635ZM48.169 42.36C46.977 42.36 45.937 42.06 45.049 41.46C44.161 40.86 43.473 40.044 42.985 39.012C42.497 37.98 42.253 36.816 42.253 35.52C42.253 34.208 42.497 33.04 42.985 32.016C43.481 30.984 44.181 30.172 45.085 29.58C45.989 28.98 47.053 28.68 48.277 28.68C49.509 28.68 50.541 28.98 51.373 29.58C52.213 30.172 52.849 30.984 53.281 32.016C53.713 33.048 53.929 34.216 53.929 35.52C53.929 36.808 53.713 37.972 53.281 39.012C52.849 40.044 52.205 40.86 51.349 41.46C50.493 42.06 49.433 42.36 48.169 42.36ZM48.613 39.768C49.389 39.768 50.013 39.592 50.485 39.24C50.965 38.88 51.313 38.38 51.529 37.74C51.753 37.1 51.865 36.36 51.865 35.52C51.865 34.672 51.753 33.932 51.529 33.3C51.313 32.66 50.973 32.164 50.509 31.812C50.045 31.452 49.445 31.272 48.709 31.272C47.933 31.272 47.293 31.464 46.789 31.848C46.285 32.224 45.913 32.736 45.673 33.384C45.433 34.024 45.313 34.736 45.313 35.52C45.313 36.312 45.429 37.032 45.661 37.68C45.901 38.32 46.265 38.828 46.753 39.204C47.241 39.58 47.861 39.768 48.613 39.768ZM51.865 42V32.904H51.505V24.72H54.421V42H51.865ZM58.0255 27.072V24.42H60.9175V27.072H58.0255ZM58.0255 42V29.04H60.9175V42H58.0255ZM72.108 42C71.252 42.16 70.412 42.228 69.588 42.204C68.772 42.188 68.04 42.04 67.392 41.76C66.744 41.472 66.252 41.02 65.916 40.404C65.62 39.844 65.464 39.272 65.448 38.688C65.432 38.104 65.424 37.444 65.424 36.708V25.44H68.304V36.54C68.304 37.06 68.308 37.516 68.316 37.908C68.332 38.3 68.416 38.62 68.568 38.868C68.856 39.348 69.316 39.616 69.948 39.672C70.58 39.728 71.3 39.696 72.108 39.576V42ZM63.072 31.308V29.04H72.108V31.308H63.072Z" fill="#096F20"/>
</svg>
